<svg width="34" height="34" viewBox="0 0 34 34" fill="none" xmlns="http://www.w3.org/2000/svg">
<path d="M29.75 18.1192C29.5271 20.5306 28.6221 22.8287 27.1408 24.7446C25.6595 26.6605 23.6633 28.1149 21.3856 28.9376C19.1079 29.7603 16.643 29.9173 14.2793 29.3903C11.9156 28.8633 9.75089 27.6739 8.03847 25.9615C6.32605 24.2491 5.13673 22.0844 4.60968 19.7207C4.08264 17.357 4.23966 14.8921 5.06238 12.6144C5.8851 10.3367 7.33949 8.34044 9.25537 6.85915C11.1712 5.37786 13.4694 4.47285 15.8808 4.25C14.469 6.16005 13.7896 8.51339 13.9662 10.882C14.1429 13.2506 15.1638 15.4772 16.8433 17.1567C18.5228 18.8362 20.7494 19.8571 23.118 20.0337C25.4866 20.2104 27.8399 19.531 29.75 18.1192Z" stroke="#1E1E1E" stroke-width="4" stroke-linecap="round" stroke-linejoin="round"/>
</svg>
