<svg xmlns="http://www.w3.org/2000/svg" width="256" height="256" viewBox="0 0 256 256" fill="none">
	<rect width="256" height="256" fill="white" rx="32" />
	<g transform="translate(12.8, 12.8) scale(0.872)">
		<path fill="#FFFFFF" opacity="1.000000" stroke="none" 
		d="
		M141.000000,257.000000 
		C94.000000,257.000000 47.500004,257.000000 1.000006,257.000000 
		C1.000004,171.666672 1.000004,86.333351 1.000002,1.000018 
		C86.333321,1.000012 171.666641,1.000012 257.000000,1.000006 
		C257.000000,86.333313 257.000000,171.666626 257.000000,256.999969 
		C218.500000,257.000000 180.000000,257.000000 141.000000,257.000000 
		M122.750648,205.370071 
		C125.511131,215.544296 131.962830,222.651810 140.661072,228.393509 
		C162.932846,243.095123 194.689240,232.366562 204.667206,208.888138 
		C213.452835,188.215408 203.921524,164.329681 184.600220,155.272430 
		C184.016113,154.998642 183.531372,154.512878 183.849091,154.034012 
		C192.517532,155.831787 201.203613,157.550644 209.842697,159.479858 
		C212.156281,159.996521 214.181076,160.600677 214.932236,157.571381 
		C216.657990,150.611755 218.317276,143.635666 220.160233,136.018692 
		C206.319931,132.914825 192.857285,129.895660 179.390335,126.875534 
		C186.458466,96.279709 193.259613,66.353638 200.398651,36.508392 
		C201.368103,32.455475 200.082275,31.556736 196.698029,30.963049 
		C191.205414,29.999502 185.658844,29.106237 180.330368,27.525080 
		C176.584457,26.413528 175.692551,27.907612 174.963150,30.995642 
		C170.700333,49.043224 166.381088,67.077911 161.974319,85.090881 
		C159.366669,95.749863 156.562729,106.360817 153.304871,116.563873 
		C152.773926,115.179420 152.451065,113.665398 151.681534,112.429497 
		C133.352158,82.991714 115.000481,53.567627 96.511360,24.230223 
		C95.780441,23.070446 93.571480,22.061775 92.196609,22.222961 
		C86.158073,22.930904 80.155151,24.001123 74.176788,25.137154 
		C71.525620,25.640938 69.478088,26.748638 68.937096,30.090143 
		C66.701721,43.897255 64.265488,57.674114 61.719402,71.428093 
		C58.245670,90.193260 54.579464,108.922729 51.063969,127.680283 
		C50.570465,130.313477 50.463718,133.019165 50.138840,136.056992 
		C54.893955,135.338593 58.931484,134.728607 62.597584,134.679688 
		C39.912655,144.206970 30.876598,167.264328 34.915375,184.677231 
		C38.444210,199.891571 44.888847,212.456284 60.091351,219.112747 
		C70.291061,223.578705 80.549164,223.694473 91.018593,220.951675 
		C102.543892,217.932251 114.001938,214.671600 122.750648,205.370071 
	z"/>
	<path fill="#A2A2FF" opacity="1.000000" stroke="none" 
		d="
		M62.969013,134.118622 
		C58.931484,134.728607 54.893955,135.338593 50.138840,136.056992 
		C50.463718,133.019165 50.570465,130.313477 51.063969,127.680283 
		C54.579464,108.922729 58.245670,90.193260 61.719402,71.428093 
		C64.265488,57.674114 66.701721,43.897255 68.937096,30.090143 
		C69.478088,26.748638 71.525620,25.640938 74.176788,25.137154 
		C80.155151,24.001123 86.158073,22.930904 92.196609,22.222961 
		C93.571480,22.061775 95.780441,23.070446 96.511360,24.230223 
		C115.000481,53.567627 133.352158,82.991714 151.681534,112.429497 
		C152.451065,113.665398 152.773926,115.179420 153.612549,117.032127 
		C153.896881,117.669533 153.873505,117.838692 153.459534,118.045189 
		C147.254593,119.133537 141.294220,119.701401 135.675507,121.399643 
		C131.705444,122.599602 129.912186,121.220131 128.075668,118.268616 
		C124.161301,111.977791 120.117157,105.767723 116.080177,99.452583 
		C104.385925,101.346657 92.879768,103.182350 81.386200,105.093681 
		C78.866249,105.512733 76.992432,106.433060 76.588554,109.623222 
		C75.682884,116.777130 74.307205,123.871536 72.885422,131.286804 
		C69.421631,132.428482 66.195320,133.273544 62.969013,134.118622 
		M101.123215,71.326469 
		C96.113228,62.675156 91.103241,54.023842 85.553078,44.439728 
		C83.349670,60.024254 81.358910,74.104736 79.332245,88.439140 
		C84.244797,87.593147 88.909683,86.862671 93.543648,85.971420 
		C98.232697,85.069580 102.891151,84.008614 108.045456,82.914993 
		C105.551392,78.721710 103.536613,75.334259 101.123215,71.326469 
	z"/>
	<path fill="#90FF90" opacity="1.000000" stroke="none" 
		d="
		M153.850143,118.007851 
		C153.873505,117.838692 153.896881,117.669533 153.883652,117.246872 
		C156.562729,106.360817 159.366669,95.749863 161.974319,85.090881 
		C166.381088,67.077911 170.700333,49.043224 174.963150,30.995642 
		C175.692551,27.907612 176.584457,26.413528 180.330368,27.525080 
		C185.658844,29.106237 191.205414,29.999502 196.698029,30.963049 
		C200.082275,31.556736 201.368103,32.455475 200.398651,36.508392 
		C193.259613,66.353638 186.458466,96.279709 179.390335,126.875534 
		C192.857285,129.895660 206.319931,132.914825 220.160233,136.018692 
		C218.317276,143.635666 216.657990,150.611755 214.932236,157.571381 
		C214.181076,160.600677 212.156281,159.996521 209.842697,159.479858 
		C201.203613,157.550644 192.517532,155.831787 183.041534,154.007874 
		C176.475922,152.605087 170.717850,151.228424 164.719452,149.551056 
		C158.750580,148.094696 153.022034,146.939041 147.442398,145.813431 
		C149.630768,136.317276 151.740463,127.162560 153.850143,118.007851 
	z"/>
	<path fill="#FF90B9" opacity="1.000000" stroke="none" 
		d="
		M62.783298,134.399155 
		C66.195320,133.273544 69.421631,132.428482 73.298157,131.289337 
		C81.169418,130.330826 88.382614,129.517990 95.618561,129.136032 
		C96.953911,129.065536 99.230034,130.463654 99.614922,131.654770 
		C101.056679,136.116486 101.894043,140.773499 103.044464,145.729874 
		C101.732788,145.804077 100.840027,146.112701 100.166626,145.852875 
		C93.242233,143.180832 86.233276,143.921432 79.143036,144.982651 
		C69.614914,146.408752 54.993999,154.840942 54.066723,167.636322 
		C53.647980,173.414566 53.686165,179.510452 55.055195,185.084442 
		C60.975948,209.190704 86.128883,212.540573 102.090630,199.709076 
		C100.381828,194.043182 98.638832,188.263885 96.915787,182.550751 
		C93.696846,183.120758 90.944954,183.559830 88.213196,184.100601 
		C79.084007,185.907806 79.396622,185.829453 76.710945,176.811371 
		C75.443176,172.554413 76.887436,171.672760 80.514885,170.884720 
		C89.359169,168.963394 98.147827,166.768127 106.908424,164.489197 
		C109.919991,163.705795 111.301582,164.066818 112.152092,167.504456 
		C114.434914,176.731293 117.239738,185.829010 119.900986,195.383179 
		C120.687790,198.855255 121.410866,201.922150 122.133942,204.989029 
		C114.001938,214.671600 102.543892,217.932251 91.018593,220.951675 
		C80.549164,223.694473 70.291061,223.578705 60.091351,219.112747 
		C44.888847,212.456284 38.444210,199.891571 34.915375,184.677231 
		C30.876598,167.264328 39.912655,144.206970 62.783298,134.399155 
	z"/>
	<path fill="#3498DB" opacity="1.000000" stroke="none" 
		d="
		M122.442291,205.179550 
		C121.410866,201.922150 120.687790,198.855255 119.967163,194.953766 
		C120.708145,166.081680 140.551163,150.877823 164.959778,149.851761 
		C170.717850,151.228424 176.475922,152.605087 182.617157,154.053833 
		C183.531372,154.512878 184.016113,154.998642 184.600220,155.272430 
		C203.921524,164.329681 213.452835,188.215408 204.667206,208.888138 
		C194.689240,232.366562 162.932846,243.095123 140.661072,228.393509 
		C131.962830,222.651810 125.511131,215.544296 122.442291,205.179550 
		M143.431091,177.055511 
		C138.831604,183.466293 136.730133,190.323212 138.686646,198.311890 
		C142.049881,212.044403 158.572739,222.988571 174.448654,215.733597 
		C191.200226,208.078461 195.663483,189.230072 182.958679,175.474655 
		C172.378784,164.019852 154.871597,164.106064 143.431091,177.055511 
	z"/>
	<path fill="#FFFFFF" opacity="1.000000" stroke="none" 
		d="
		M164.719452,149.551056 
		C140.551163,150.877823 120.708145,166.081680 119.903435,194.548584 
		C117.239738,185.829010 114.434914,176.731293 112.152092,167.504456 
		C111.301582,164.066818 109.919991,163.705795 106.908424,164.489197 
		C98.147827,166.768127 89.359169,168.963394 80.514885,170.884720 
		C76.887436,171.672760 75.443176,172.554413 76.710945,176.811371 
		C79.396622,185.829453 79.084007,185.907806 88.213196,184.100601 
		C90.944954,183.559830 93.696846,183.120758 96.915787,182.550751 
		C98.638832,188.263885 100.381828,194.043182 102.090630,199.709076 
		C86.128883,212.540573 60.975948,209.190704 55.055195,185.084442 
		C53.686165,179.510452 53.647980,173.414566 54.066723,167.636322 
		C54.993999,154.840942 69.614914,146.408752 79.143036,144.982651 
		C86.233276,143.921432 93.242233,143.180832 100.166626,145.852875 
		C100.840027,146.112701 101.732788,145.804077 103.044464,145.729874 
		C101.894043,140.773499 101.056679,136.116486 99.614922,131.654770 
		C99.230034,130.463654 96.953911,129.065536 95.618561,129.136032 
		C88.382614,129.517990 81.169418,130.330826 73.535637,130.992706 
		C74.307205,123.871536 75.682884,116.777130 76.588554,109.623222 
		C76.992432,106.433060 78.866249,105.512733 81.386200,105.093681 
		C92.879768,103.182350 104.385925,101.346657 116.080177,99.452583 
		C120.117157,105.767723 124.161301,111.977791 128.075668,118.268616 
		C129.912186,121.220131 131.705444,122.599602 135.675507,121.399643 
		C141.294220,119.701401 147.254593,119.133537 153.459534,118.045189 
		C151.740463,127.162560 149.630768,136.317276 147.442398,145.813431 
		C153.022034,146.939041 158.750580,148.094696 164.719452,149.551056 
	z"/>
	<path fill="#FFFFFF" opacity="1.000000" stroke="none" 
		d="
		M101.322525,71.636642 
		C103.536613,75.334259 105.551392,78.721710 108.045456,82.914993 
		C102.891151,84.008614 98.232697,85.069580 93.543648,85.971420 
		C88.909683,86.862671 84.244797,87.593147 79.332245,88.439140 
		C81.358910,74.104736 83.349670,60.024254 85.553078,44.439728 
		C91.103241,54.023842 96.113228,62.675156 101.322525,71.636642 
	z"/>
	<path fill="#FFFFFF" opacity="1.000000" stroke="none" 
		d="
		M143.696533,176.802475 
		C154.871597,164.106064 172.378784,164.019852 182.958679,175.474655 
		C195.663483,189.230072 191.200226,208.078461 174.448654,215.733597 
		C158.572739,222.988571 142.049881,212.044403 138.686646,198.311890 
		C136.730133,190.323212 138.831604,183.466293 143.696533,176.802475 
	z"/>
    </g>
</svg>